# xmcd CD database file
# Copyright (C) 1995-1998 Ti Kan
#
# Track frame offsets:
#	182
#	20905
#	42752
#	63232
#	85782
#	109220
#	132322
#	154957
#	178272
#	200707
#	217847
#
# Disc length: 3200 seconds
#
# Revision: 3
# Processed by: cddbd v1.4b42PL1 Copyright (c) Steve Scherf et al.
# Submitted via: CDex 1.30Release
#
DISCID=9d0c7e0b
DTITLE=Gerald Alston - First Class Only
DYEAR=1900
DGENRE=Blues
TTITLE0=Tell Me
TTITLE1=Nothin Better
TTITLE2=I'm Going Crazy
TTITLE3=I Believe
TTITLE4=Stay The Night
TTITLE5=Mirror Mirror
TTITLE6=The Best Is Yet To Come
TTITLE7=Devote All My Time
TTITLE8=Just Say Yes Tonight
TTITLE9=Kiss And Say Goodbye
TTITLE10=Willin To Be Thrillin
EXTD=ID3G:   0
EXTT0=
EXTT1=
EXTT2=
EXTT3=
EXTT4=
EXTT5=
EXTT6=
EXTT7=
EXTT8=
EXTT9=
EXTT10=
PLAYORDER=
